# AST/ASF file generated using VICON BodyLanguage
# -----------------------------------------------
:version 1.10
:name VICON
:units
  mass 1.0
  length 0.45
  angle deg
:documentation
   .ast/.asf automatically generated from VICON data using
   VICON BodyBuilder and BodyLanguage model FoxedUp or BRILLIANT.MOD
:root
   order TX TY TZ RX RY RZ
   axis XYZ
   position 0 0 0  
   orientation 0 0 0 
:bonedata
  begin
     id 1 
     name lhipjoint
     direction 0.646657 -0.683706 0.338203 
     length 2.4948 
     axis 0 0 0  XYZ
  end
  begin
     id 2 
     name lfemur
     direction 0.34202 -0.939693 0  
     length 6.79491  
     axis 0 0 20  XYZ
    dof rx ry rz
    limits (-160.0 20.0)
           (-70.0 70.0)
           (-60.0 70.0)
  end
  begin
     id 3 
     name ltibia
     direction 0.34202 -0.939693 0   
     length 7.56807   
     axis 0 0 20   XYZ
    dof rx
    limits (-10.0 170.0)
  end
  begin
     id 4 
     name lfoot
     direction 0.0679796 -0.186772 0.980048   
     length 2.53018   
     axis -90 7.62852e-016 20   XYZ
    dof rx rz
    limits (-45.0 90.0)
           (-70.0 20.0)
  end
  begin
     id 5 
     name ltoes
     direction 1.53625e-011 -4.21881e-011 1   
     length 1.26912   
     axis -90 7.62852e-016 20   XYZ
    dof rx
    limits (-90.0 20.0)
  end
  begin
     id 6 
     name rhipjoint
     direction -0.618868 -0.704065 0.348274   
     length 2.42265  
     axis 0 0 0  XYZ 
  end
  begin
     id 7 
     name rfemur
     direction -0.34202 -0.939693 0   
     length 6.73814   
     axis 0 0 -20   XYZ
    dof rx ry rz
    limits (-160.0 20.0)
           (-70.0 70.0)
           (-70.0 60.0)
  end
  begin
     id 8 
     name rtibia
     direction -0.34202 -0.939693 0   
     length 7.66799   
     axis 0 0 -20   XYZ
    dof rx
    limits (-10.0 170.0)
 end
 begin
     id 9 
     name rfoot
     direction -0.0727352 -0.199838 0.977125   
     length 2.57224  
     axis -90 -7.62852e-016 -20   XYZ
    dof rx rz
    limits (-45.0 90.0)
           (-20.0 70.0)
  end
  begin
     id 10 
     name rtoes
     direction -1.53501e-011 -4.21858e-011 1   
     length 1.28858   
     axis -90 -7.62852e-016 -20   XYZ
    dof rx
    limits (-90.0 20.0)
  end
  begin
     id 11 
     name lowerback
     direction -0.0172471 0.995767 -0.0902851   
     length 2.20206   
     axis 0 0 0   XYZ
    dof rx ry rz
    limits (-20.0 45.0)
           (-30.0 30.0)
           (-30.0 30.0)
  end
  begin
     id 12 
     name upperback
     direction -0.000110737 0.999714 0.0239043   
     length 2.19523   
     axis 0 0 0   XYZ
    dof rx ry rz
    limits (-20.0 45.0)
           (-30.0 30.0)
           (-30.0 30.0)
  end
  begin
     id 13 
     name thorax
     direction 0.00704869 0.997783 0.0661741   
     length 2.21977   
     axis 0 0 0   XYZ
    dof rx ry rz
    limits (-20.0 45.0)
           (-30.0 30.0)
           (-30.0 30.0)
  end
  begin
     id 14 
     name lowerneck
     direction -0.00407501 0.995527 0.0943846   
     length 1.83142   
     axis 0 0 0   XYZ
    dof rx ry rz
    limits (-20.0 45.0)
           (-30.0 30.0)
           (-30.0 30.0)
  end
  begin
     id 15 
     name upperneck
     direction 0.0640586 0.986486 -0.150807   
     length 1.84616   
     axis 0 0 0   XYZ
    dof rx ry rz
    limits (-20.0 45.0)
           (-30.0 30.0)
           (-30.0 30.0)
  end
  begin
     id 16
     name head
     direction 0.0188017 0.99791 -0.0618239  
     length 1.85932  
     axis 0 0 0   XYZ
    dof rx ry rz
    limits (-20.0 45.0)
           (-30.0 30.0)
           (-30.0 30.0)
  end
  begin
     id 17 
     name lclavicle
     direction 0.976074 0.206905 0.066852  
     length 3.81043  
     axis 0 0 0   XYZ
    dof ry rz
    limits (-20.0 10.0)
           (0.0 20.0)
  end
  begin
     id 18 
     name lhumerus
     direction 1 -4.48971e-011 1.86916e-027   
     length 5.37587   
     axis 180 -30 -90   XYZ
    dof rx ry rz
    limits (-60.0 90.0)
           (-90.0 90.0)
           (-90.0 90.0)
  end
  begin
     id 19
     name lradius
     direction 1 -4.48968e-011 1.69187e-027   
     length 3.35977   
     axis 180 -30 -90   XYZ
    dof rx
    limits (-10.0 170.0)
  end
  begin
     id 20
     name lwrist
     direction 1 -4.48968e-011 5.8978e-027   
     length 1.67988   
     axis -3.27506e-015 90 90   XYZ
    dof ry
    limits (-180.0 0.0)
 end
  begin
     id 21 
     name lhand
     direction 1 -4.49028e-011 1.18071e-026   
     length 0.561859   
     axis -7.52654e-015 90 90   XYZ
    dof rx rz
    limits (-90.0 90.0)
           (-45.0 45.0)
  end
  begin
     id 22 
     name lfingers
     direction 1 -4.48927e-011 2.35758e-026   
     length 0.452985   
     axis -1.50534e-014 90 90   XYZ
    dof rx
    limits (0.0 90.0)
  end
  begin
     id 23
     name lthumb
     direction 0.707107 -6.34898e-011 0.707107   
     length 0.650399   
     axis -90 45 5.69224e-014   XYZ
    dof rx rz
    limits (-45.0 45.0)
           (-45.0 45.0)
  end
  begin
     id 24 
     name rclavicle
     direction -0.988403 0.151789 0.00439714   
     length 3.6942  
     axis 0 0 0   XYZ 
    dof ry rz
    limits (-10.0 20.0)
           (-20.0 0.0)
  end
  begin
     id 25 
     name rhumerus
     direction -1 -4.48978e-011 1.62495e-027  
     length 5.22819   
     axis 180 30 90   XYZ
    dof rx ry rz
    limits (-90.0 60.0)
           (-90.0 90.0)
           (-90.0 90.0)
  end
  begin
     id 26 
     name rradius
     direction -1 -4.48961e-011 3.47796e-027   
     length 3.40764   
     axis 180 30 90   XYZ
    dof rx
    limits (-10.0 170.0)
  end
  begin
     id 27 
     name rwrist
     direction -1 -4.48949e-011 5.89602e-027   
     length 1.70382   
     axis -3.27506e-015 -90 -90   XYZ
    dof ry
    limits (-180.0 0.0)
  end
  begin
     id 28
     name rhand
     direction -1 -4.48977e-011 1.17973e-026   
     length 0.583255   
     axis -7.52654e-015 -90 -90   XYZ
    dof rx rz
    limits (-90.0 90.0)
           (-45.0 45.0)
  end
  begin
     id 29
     name rfingers
     direction -1 -4.49099e-011 2.36408e-026   
     length 0.470235   
     axis -1.50534e-014 -90 -90   XYZ
    dof rx
    limits (0.0 90.0)
  end
  begin
     id 30
     name rthumb
     direction -0.707107 -6.35011e-011 0.707107   
     length 0.675167   
     axis -90 -45 -5.69224e-014   XYZ
    dof rx rz
    limits (-45.0 45.0)
           (-45.0 45.0)
  end
:hierarchy
  begin
    root lhipjoint rhipjoint lowerback
    lhipjoint lfemur
    lfemur ltibia
    ltibia lfoot
    lfoot ltoes
    rhipjoint rfemur
    rfemur rtibia
    rtibia rfoot
    rfoot rtoes
    lowerback upperback
    upperback thorax
    thorax lowerneck lclavicle rclavicle
    lowerneck upperneck
    upperneck head
    lclavicle lhumerus
    lhumerus lradius
    lradius lwrist
    lwrist lhand lthumb
    lhand lfingers
    rclavicle rhumerus
    rhumerus rradius
    rradius rwrist
    rwrist rhand rthumb
    rhand rfingers
  end

#!OML:ASF G:\JayActor3\Patient Classification 1\Patient 1\Session 2\male.ASF
:FULLY-SPECIFIED
:DEGREES
1075
root 17.1244 17.1611 -4.82488 1061.77 -263.216 -734.784
lowerback 2.11132 -0.370772 0.550507
upperback 0.296071 -0.426602 2.59105
thorax -0.864651 -0.198703 2.36031
lowerneck -14.6641 -2.08284 -1.59217
upperneck 4.13629 -2.55757 1.40261
head 4.05271 -1.20257 0.55476
rclavicle -1.54058e-015 3.18055e-015
rhumerus -34.6674 3.97937 -88.5283
rradius 35.0905
rwrist -10.7151
rhand -22.8791 7.83941
rfingers 7.12502
rthumb 3.55986 -22.1106
lclavicle -1.54058e-015 3.18055e-015
lhumerus -47.988 5.2263 77.9014
lradius 12.2403
lwrist -11.7854
lhand -11.0592 18.0482
lfingers 7.12502
lthumb 14.9634 47.4876
rfemur -11.5169 2.94068 18.7273
rtibia 35.6548
rfoot -16.8688 -5.82336
rtoes 19.8373
lfemur -13.2205 16.7827 -15.1845
ltibia 75.7134
lfoot -2.89265 4.18931
ltoes -13.2632
1076
root 17.3486 17.2554 -4.81368 1064.58 -263.134 -732.007
lowerback 1.84248 -0.0215611 0.900884
upperback 0.18325 0.0371777 2.35675
thorax -0.846369 0.0303062 1.9091
lowerneck -14.9623 -2.40602 -2.07743
upperneck 4.82931 -2.92276 1.68413
head 3.90137 -1.3715 0.631705
rclavicle 1.49089e-015 1.11319e-014
rhumerus -34.5248 6.6437 -90.5234
rradius 37.0966
rwrist -11.438
rhand -21.9307 7.39835
rfingers 7.12502
rthumb 4.47572 -22.5344
lclavicle 1.49089e-015 1.11319e-014
lhumerus -49.1724 2.84984 78.1768
lradius 13.1175
lwrist -9.53067
lhand -10.729 17.8693
lfingers 7.12502
lthumb 15.2815 47.2848
rfemur -10.2719 2.83283 19.1936
rtibia 34.7166
rfoot -16.2445 -6.05281
rtoes 19.5509
lfemur -15.1952 16.6302 -15.8013
ltibia 75.67
lfoot -3.67755 4.49858
ltoes -13.4509
1077
root 17.5701 17.3452 -4.80348 1067.14 -263.125 -729.49
lowerback 1.6049 0.346546 1.25538
upperback 0.0966616 0.524942 2.10831
thorax -0.809372 0.270943 1.44375
lowerneck -15.1931 -2.74666 -2.58981
upperneck 5.0739 -3.29998 1.93875
head 4.03287 -1.55188 0.758402
rclavicle 2.05245e-014 8.74653e-015
rhumerus -34.3921 9.31597 -92.3484
rradius 39.3176
rwrist -11.8856
rhand -20.9271 6.95393
rfingers 7.12502
rthumb 5.44472 -22.9561
lclavicle 2.05245e-014 8.74653e-015
lhumerus -50.3488 0.794111 78.1777
lradius 14.1327
lwrist -7.28011
lhand -10.411 17.7046
lfingers 7.12502
lthumb 15.5878 47.0965
rfemur -9.23583 2.67484 19.6251
rtibia 34.0403
rfoot -15.5023 -6.2536
rtoes 19.1005
lfemur -17.0903 16.5014 -16.4188
ltibia 75.4105
lfoot -4.39789 4.80591
ltoes -13.5946
1078
root 17.7887 17.4298 -4.7945 1069.66 -263.201 -727.035
lowerback 1.40759 0.730144 1.62742
upperback 0.0374907 1.03301 1.85158
thorax -0.756194 0.521662 0.962781
lowerneck -15.4125 -3.0989 -3.10096
upperneck 5.23243 -3.68957 2.20019
head 4.13944 -1.73728 0.885453
rclavicle -1.30701e-014 8.74653e-015
rhumerus -34.2272 11.9514 -93.9725
rradius 41.692
rwrist -12.0129
rhand -19.8269 6.51244
rfingers 7.12502
rthumb 6.50696 -23.3676
lclavicle -1.30701e-014 8.74653e-015
lhumerus -51.4883 -0.917245 77.8661
lradius 15.2507
lwrist -5.05542
lhand -10.1315 17.5725
lfingers 7.12502
lthumb 15.8571 46.9432
rfemur -8.38169 2.44689 20.0291
rtibia 33.5857
rfoot -14.6191 -6.4313
rtoes 18.4532
lfemur -18.8985 16.3924 -17.0128
ltibia 74.9411
lfoot -5.09309 5.08031
ltoes -13.6663
1079
root 18.0044 17.5087 -4.78707 1072.34 -263.354 -724.42
lowerback 1.24623 1.12145 2.02643
upperback 0.00170141 1.5515 1.59416
thorax -0.687292 0.777844 0.468814
lowerneck -15.6131 -3.45838 -3.59886
upperneck 5.31366 -4.08836 2.46558
head 4.22223 -1.92603 1.01045
rclavicle -6.06293e-015 2.22639e-014
rhumerus -34.0016 14.5142 -95.3706
rradius 44.1619
rwrist -11.8381
rhand -18.6063 6.10761
rfingers 7.12502
rthumb 7.68511 -23.7327
lclavicle -6.06293e-015 2.22639e-014
lhumerus -52.5775 -2.31264 77.2656
lradius 16.4506
lwrist -2.84053
lhand -9.90647 17.5119
lfingers 7.12502
lthumb 16.0737 46.8652
rfemur -7.68119 2.11565 20.4113
rtibia 33.2958
rfoot -13.5938 -6.54818
rtoes 17.8042
lfemur -20.6252 16.2873 -17.5661
ltibia 74.2705
lfoot -5.7811 5.31232
ltoes -13.6961
1080
root 18.2173 17.5811 -4.78143 1075.42 -263.534 -721.421
lowerback 1.11544 1.5017 2.45833
upperback -0.013049 2.05566 1.34133
thorax -0.601426 1.02743 -0.0357022
lowerneck -15.7924 -3.81954 -4.07829
upperneck 5.32852 -4.49098 2.73956
head 4.28406 -2.11505 1.13453
rclavicle 7.1314e-015 4.77083e-015
rhumerus -33.7125 17.0301 -96.5504
rradius 46.7031
rwrist -11.5241
rhand -17.3733 5.78812
rfingers 7.12502
rthumb 8.87512 -24.0052
lclavicle 7.1314e-015 4.77083e-015
lhumerus -53.6067 -3.44147 76.4267
lradius 17.7054
lwrist -0.64692
lhand -9.76601 17.5109
lfingers 7.12502
lthumb 16.209 46.8533
rfemur -7.09173 1.64654 20.7799
rtibia 33.1112
rfoot -12.4286 -6.61038
rtoes 17.221
lfemur -22.2804 16.1391 -18.0654
ltibia 73.4099
lfoot -6.45871 5.51584
ltoes -13.7291
1081
root 18.4278 17.6462 -4.77753 1079.03 -263.697 -717.896
lowerback 1.00093 1.85479 2.92223
upperback -0.0119769 2.52383 1.10017
thorax -0.49675 1.25993 -0.542676
lowerneck -15.9436 -4.1697 -4.5256
upperneck 5.29882 -4.88416 3.0174
head 4.32962 -2.29802 1.25532
rclavicle -2.9271e-014 7.95139e-016
rhumerus -33.3625 19.4931 -97.5083
rradius 49.3037
rwrist -11.2115
rhand -16.1123 5.53049
rfingers 7.12502
rthumb 10.0919 -24.2075
lclavicle -2.9271e-014 7.95139e-016
lhumerus -54.5892 -4.36799 75.4281
lradius 18.9943
lwrist 1.49246
lhand -9.71142 17.535
lfingers 7.12502
lthumb 16.2615 46.8731
rfemur -6.58211 1.04053 21.1459
rtibia 32.9816
rfoot -11.1601 -6.60507
rtoes 16.8717
lfemur -23.8735 15.9196 -18.4981
ltibia 72.3686
lfoot -7.11617 5.71696
ltoes -13.8093
1082
root 18.6362 17.7032 -4.77485 1083.16 -263.796 -713.883
lowerback 0.889163 2.16965 3.4015
upperback 0.00520205 2.94051 0.875075
thorax -0.367951 1.46806 -1.03798
lowerneck -16.0636 -4.49949 -4.94199
upperneck 5.23051 -5.25642 3.30431
head 4.35972 -2.46915 1.37587
rclavicle -6.58971e-014 -2.82274e-014
rhumerus -32.9649 21.9099 -98.256
rradius 51.956
rwrist -10.9874
rhand -14.9732 5.32509
rfingers 7.12502
rthumb 11.1906 -24.3565
lclavicle -6.58971e-014 -2.82274e-014
lhumerus -55.5299 -5.14694 74.3432
lradius 20.2936
lwrist 3.50152
lhand -9.74467 17.5558
lfingers 7.12502
lthumb 16.2295 46.8965
rfemur -6.12056 0.328958 21.5189
rtibia 32.8691
rfoot -9.84203 -6.55839
rtoes 16.7324
lfemur -25.405 15.6103 -18.8591
ltibia 71.1539
lfoot -7.72238 5.94545
ltoes -13.9324
1083
root 18.8428 17.7523 -4.77163 1087.76 -263.89 -709.425
lowerback 0.756755 2.47365 3.86656
upperback 0.0306154 3.34083 0.670222
thorax -0.211897 1.66963 -1.50043
lowerneck -16.1583 -4.801 -5.31821
upperneck 5.14234 -5.59924 3.59409
head 4.38002 -2.62459 1.49352
rclavicle -6.24929e-015 -8.15017e-015
rhumerus -32.525 24.2582 -98.7992
rradius 54.6555
rwrist -10.8877
rhand -14.0182 5.12551
rfingers 7.12502
rthumb 12.1115 -24.5039
lclavicle -6.24929e-015 -8.15017e-015
lhumerus -56.4373 -5.84515 73.2537
lradius 21.5831
lwrist 5.30601
lhand -9.83646 17.5506
lfingers 7.12502
lthumb 16.1411 46.8985
rfemur -5.72084 -0.401278 21.907
rtibia 32.7507
rfoot -8.51412 -6.46324
rtoes 16.8998
lfemur -26.887 15.3056 -19.1435
ltibia 69.7642
lfoot -8.25591 6.23576
ltoes -14.1688
1084
root 19.0478 17.7932 -4.76691 1092.75 -263.959 -704.601
lowerback 0.626805 2.76659 4.29869
upperback 0.0674346 3.72521 0.48562
thorax -0.040692 1.86485 -1.92053
lowerneck -16.2211 -5.07044 -5.65823
upperneck 5.03552 -5.90806 3.8918
head 4.3895 -2.76214 1.61125
rclavicle 2.15619e-014 -1.51076e-014
rhumerus -32.045 26.5152 -99.1467
rradius 57.3878
rwrist -10.8746
rhand -13.2454 4.91905
rfingers 7.12502
rthumb 12.8567 -24.665
lclavicle 2.15619e-014 -1.51076e-014
lhumerus -57.3113 -6.50325 72.2092
lradius 22.8305
lwrist 6.81722
lhand -9.96439 17.4992
lfingers 7.12502
lthumb 16.0179 46.857
rfemur -5.33761 -1.09958 22.3193
rtibia 32.6125
rfoot -7.25339 -6.35139
rtoes 17.4413
lfemur -28.2869 15.018 -19.3447
ltibia 68.1991
lfoot -8.7353 6.59266
ltoes -14.4013
